<svg xmlns="http://www.w3.org/2000/svg" id="Layer_1" data-name="Layer 1" viewBox="0 0 180.7 180.7"><defs><style>.cls-1,.cls-2{fill:#fff}.cls-1{stroke:#bbb;stroke-miterlimit:10;stroke-width:.32px}.cls-3{fill:#bbb}</style></defs><title>pattern</title><polygon points="180.86 -45.16 226.02 0 226.02 -90.32 180.86 -45.16" class="cls-1"/><polygon points="180.86 -45.16 90.54 -45.16 135.7 0 180.86 -45.16" class="cls-1"/><polygon points="45.38 -90.32 45.38 0 90.54 -45.16 45.38 -90.32" class="cls-1"/><polygon points=".23 -45.16 45.38 0 45.38 -90.32 .23 -45.16" class="cls-1"/><polygon points=".23 0 45.38 0 .23 -45.16 .23 0" class="cls-1"/><polygon points="135.7 0 180.86 0 180.86 -45.16 135.7 0" class="cls-2"/><path d="M181,.16h-45.7l.27-.27L181-45.54ZM136.09-.16H180.7V-44.77Z" class="cls-3"/><polygon points="90.54 -45.16 90.54 0 135.7 0 90.54 -45.16" class="cls-2"/><path d="M136.09.16H90.38v-45.7l.27.27ZM90.7-.16h44.61L90.7-44.77Z" class="cls-3"/><polygon points="45.38 0 90.54 0 90.54 -45.16 45.38 0" class="cls-2"/><path d="M90.7.16H45l.27-.27L90.7-45.54ZM45.77-.16H90.38V-44.77Z" class="cls-3"/><polygon points="180.86 225.84 226.02 271 226.02 180.68 180.86 225.84" class="cls-1"/><polygon points=".23 45.21 45.38 .05 .23 .05 .23 45.21" class="cls-1"/><polygon points="135.7 180.68 135.7 271 180.86 225.84 135.7 180.68" class="cls-1"/><polygon points="90.54 225.84 135.7 271 135.7 180.68 90.54 225.84" class="cls-1"/><polygon points="135.7 180.68 180.86 225.84 180.86 135.52 135.7 180.68" class="cls-1"/><polygon points="180.86 135.52 226.02 180.68 226.02 90.36 180.86 135.52" class="cls-1"/><polygon points=".23 225.84 45.38 271 45.38 180.68 .23 225.84" class="cls-1"/><polygon points="45.38 180.68 45.38 271 90.54 225.84 45.38 180.68" class="cls-1"/><polygon points="45.38 180.68 90.54 225.84 90.54 135.52 45.38 180.68" class="cls-1"/><polygon points="90.54 135.52 90.54 225.84 135.7 180.68 90.54 135.52" class="cls-1"/><polygon points="90.54 135.52 135.7 180.68 135.7 90.36 90.54 135.52" class="cls-1"/><polygon points="135.7 90.36 135.7 180.68 180.86 135.52 135.7 90.36" class="cls-1"/><polygon points="135.7 90.36 180.86 135.52 180.86 45.21 135.7 90.36" class="cls-1"/><polygon points="180.86 45.21 226.02 90.36 226.02 .05 180.86 45.21" class="cls-1"/><polygon points=".23 225.84 45.38 180.68 .23 135.52 .23 225.84" class="cls-1"/><polygon points="45.38 90.36 45.38 180.68 90.54 135.52 45.38 90.36" class="cls-1"/><polygon points=".23 135.52 45.38 180.68 45.38 90.36 .23 135.52" class="cls-1"/><polygon points="45.38 90.36 90.54 135.52 90.54 45.21 45.38 90.36" class="cls-1"/><polygon points="90.54 45.21 90.54 135.52 135.7 90.36 90.54 45.21" class="cls-1"/><polygon points="135.7 .05 90.54 45.21 180.86 45.21 135.7 .05" class="cls-1"/><polygon points="180.86 45.21 90.54 45.21 135.7 90.36 180.86 45.21" class="cls-1"/><polygon points="135.7 .05 180.86 45.21 180.86 .05 135.7 .05" class="cls-1"/><polygon points=".23 135.52 45.38 90.36 .23 45.21 .23 135.52" class="cls-1"/><polygon points=".23 45.21 45.38 90.36 45.38 .05 .23 45.21" class="cls-1"/><polygon points="45.38 .05 45.38 90.36 90.54 45.21 45.38 .05" class="cls-1"/><polygon points="90.54 .05 90.54 45.21 135.7 .05 90.54 .05" class="cls-1"/><polygon points="45.38 .05 90.54 45.21 90.54 .05 45.38 .05" class="cls-1"/></svg>